<mxfile host="app.diagrams.net" agent="Mozilla/5.0 (Windows NT 10.0; Win64; x64) AppleWebKit/537.36 (KHTML, like Gecko) Chrome/134.0.0.0 Safari/537.36" version="26.1.2">
  <diagram name="第 1 页" id="8x-L_6RalCvoe02NswXf">
    <mxGraphModel dx="1562" dy="853" grid="1" gridSize="10" guides="1" tooltips="1" connect="1" arrows="1" fold="1" page="1" pageScale="1" pageWidth="827" pageHeight="1169" math="0" shadow="0">
      <root>
        <mxCell id="0" />
        <mxCell id="1" parent="0" />
        <mxCell id="Lr_TVQ5S5jO8yoN1gr7h-4" value="" style="group;fillColor=#647687;fontColor=#ffffff;strokeColor=#314354;" vertex="1" connectable="0" parent="1">
          <mxGeometry x="200" y="110" width="220" height="500" as="geometry" />
        </mxCell>
        <mxCell id="Lr_TVQ5S5jO8yoN1gr7h-1" value="" style="rounded=0;whiteSpace=wrap;html=1;" vertex="1" parent="Lr_TVQ5S5jO8yoN1gr7h-4">
          <mxGeometry width="220.00000000000003" height="500" as="geometry" />
        </mxCell>
        <mxCell id="Lr_TVQ5S5jO8yoN1gr7h-3" value="" style="rounded=0;whiteSpace=wrap;html=1;" vertex="1" parent="Lr_TVQ5S5jO8yoN1gr7h-4">
          <mxGeometry width="220.00000000000003" height="180" as="geometry" />
        </mxCell>
        <mxCell id="Lr_TVQ5S5jO8yoN1gr7h-6" value="&lt;font style=&quot;font-size: 20px;&quot;&gt;用户区&lt;/font&gt;" style="text;html=1;align=center;verticalAlign=middle;whiteSpace=wrap;rounded=0;" vertex="1" parent="Lr_TVQ5S5jO8yoN1gr7h-4">
          <mxGeometry x="65" y="310" width="90" height="30" as="geometry" />
        </mxCell>
        <mxCell id="Lr_TVQ5S5jO8yoN1gr7h-8" value="&lt;font style=&quot;font-size: 20px;&quot;&gt;内核区&lt;/font&gt;" style="text;html=1;align=center;verticalAlign=middle;whiteSpace=wrap;rounded=0;" vertex="1" parent="Lr_TVQ5S5jO8yoN1gr7h-4">
          <mxGeometry x="10" y="75" width="90" height="30" as="geometry" />
        </mxCell>
        <mxCell id="Lr_TVQ5S5jO8yoN1gr7h-9" value="" style="rounded=0;whiteSpace=wrap;html=1;fillColor=#fa6800;strokeColor=#C73500;fillStyle=solid;fontColor=#000000;" vertex="1" parent="Lr_TVQ5S5jO8yoN1gr7h-4">
          <mxGeometry x="100" y="30" width="90" height="130" as="geometry" />
        </mxCell>
        <mxCell id="Lr_TVQ5S5jO8yoN1gr7h-10" value="&lt;font style=&quot;font-size: 20px;&quot;&gt;PCB&lt;/font&gt;" style="text;html=1;align=center;verticalAlign=middle;whiteSpace=wrap;rounded=0;fontColor=#FFFFFF;" vertex="1" parent="Lr_TVQ5S5jO8yoN1gr7h-4">
          <mxGeometry x="100" y="75" width="90" height="30" as="geometry" />
        </mxCell>
        <mxCell id="Lr_TVQ5S5jO8yoN1gr7h-18" value="&lt;font style=&quot;font-size: 20px;&quot;&gt;未决信号集&lt;/font&gt;" style="text;html=1;align=center;verticalAlign=middle;whiteSpace=wrap;rounded=0;" vertex="1" parent="1">
          <mxGeometry x="495" y="80" width="110" height="30" as="geometry" />
        </mxCell>
        <mxCell id="Lr_TVQ5S5jO8yoN1gr7h-82" value="&lt;span style=&quot;font-size: 20px;&quot;&gt;阻塞信号集&lt;/span&gt;" style="text;html=1;align=center;verticalAlign=middle;whiteSpace=wrap;rounded=0;" vertex="1" parent="1">
          <mxGeometry x="790" y="80" width="110" height="30" as="geometry" />
        </mxCell>
        <mxCell id="Lr_TVQ5S5jO8yoN1gr7h-136" value="" style="group" vertex="1" connectable="0" parent="1">
          <mxGeometry x="790" y="110" width="220" height="500" as="geometry" />
        </mxCell>
        <mxCell id="Lr_TVQ5S5jO8yoN1gr7h-81" value="" style="rounded=0;whiteSpace=wrap;html=1;" vertex="1" parent="Lr_TVQ5S5jO8yoN1gr7h-136">
          <mxGeometry width="220.00000000000003" height="500" as="geometry" />
        </mxCell>
        <mxCell id="Lr_TVQ5S5jO8yoN1gr7h-83" value="" style="group" vertex="1" connectable="0" parent="Lr_TVQ5S5jO8yoN1gr7h-136">
          <mxGeometry width="220" height="40" as="geometry" />
        </mxCell>
        <mxCell id="Lr_TVQ5S5jO8yoN1gr7h-84" value="" style="rounded=0;whiteSpace=wrap;html=1;" vertex="1" parent="Lr_TVQ5S5jO8yoN1gr7h-83">
          <mxGeometry width="220" height="40" as="geometry" />
        </mxCell>
        <mxCell id="Lr_TVQ5S5jO8yoN1gr7h-85" value="" style="rounded=0;whiteSpace=wrap;html=1;" vertex="1" parent="Lr_TVQ5S5jO8yoN1gr7h-83">
          <mxGeometry x="160" width="60" height="40" as="geometry" />
        </mxCell>
        <mxCell id="Lr_TVQ5S5jO8yoN1gr7h-86" value="&lt;font style=&quot;font-size: 20px;&quot;&gt;1&lt;/font&gt;" style="text;html=1;align=left;verticalAlign=middle;whiteSpace=wrap;rounded=0;" vertex="1" parent="Lr_TVQ5S5jO8yoN1gr7h-83">
          <mxGeometry x="20" y="5" width="90" height="30" as="geometry" />
        </mxCell>
        <mxCell id="Lr_TVQ5S5jO8yoN1gr7h-87" value="&lt;font style=&quot;font-size: 20px;&quot;&gt;0&lt;/font&gt;" style="text;html=1;align=left;verticalAlign=middle;whiteSpace=wrap;rounded=0;" vertex="1" parent="Lr_TVQ5S5jO8yoN1gr7h-83">
          <mxGeometry x="180" y="5" width="20" height="30" as="geometry" />
        </mxCell>
        <mxCell id="Lr_TVQ5S5jO8yoN1gr7h-88" value="" style="group" vertex="1" connectable="0" parent="Lr_TVQ5S5jO8yoN1gr7h-136">
          <mxGeometry y="40" width="220" height="40" as="geometry" />
        </mxCell>
        <mxCell id="Lr_TVQ5S5jO8yoN1gr7h-89" value="" style="rounded=0;whiteSpace=wrap;html=1;" vertex="1" parent="Lr_TVQ5S5jO8yoN1gr7h-88">
          <mxGeometry width="220" height="40" as="geometry" />
        </mxCell>
        <mxCell id="Lr_TVQ5S5jO8yoN1gr7h-90" value="" style="rounded=0;whiteSpace=wrap;html=1;" vertex="1" parent="Lr_TVQ5S5jO8yoN1gr7h-88">
          <mxGeometry x="160" width="60" height="40" as="geometry" />
        </mxCell>
        <mxCell id="Lr_TVQ5S5jO8yoN1gr7h-91" value="&lt;font style=&quot;font-size: 20px;&quot;&gt;2-SIGINT&lt;/font&gt;" style="text;html=1;align=left;verticalAlign=middle;whiteSpace=wrap;rounded=0;" vertex="1" parent="Lr_TVQ5S5jO8yoN1gr7h-88">
          <mxGeometry x="20" y="5" width="90" height="30" as="geometry" />
        </mxCell>
        <mxCell id="Lr_TVQ5S5jO8yoN1gr7h-92" value="&lt;font style=&quot;font-size: 20px;&quot;&gt;0&lt;/font&gt;" style="text;html=1;align=left;verticalAlign=middle;whiteSpace=wrap;rounded=0;" vertex="1" parent="Lr_TVQ5S5jO8yoN1gr7h-88">
          <mxGeometry x="180" y="5" width="20" height="30" as="geometry" />
        </mxCell>
        <mxCell id="Lr_TVQ5S5jO8yoN1gr7h-93" value="" style="group" vertex="1" connectable="0" parent="Lr_TVQ5S5jO8yoN1gr7h-136">
          <mxGeometry y="80" width="220" height="40" as="geometry" />
        </mxCell>
        <mxCell id="Lr_TVQ5S5jO8yoN1gr7h-94" value="" style="rounded=0;whiteSpace=wrap;html=1;" vertex="1" parent="Lr_TVQ5S5jO8yoN1gr7h-93">
          <mxGeometry width="220" height="40" as="geometry" />
        </mxCell>
        <mxCell id="Lr_TVQ5S5jO8yoN1gr7h-95" value="" style="rounded=0;whiteSpace=wrap;html=1;" vertex="1" parent="Lr_TVQ5S5jO8yoN1gr7h-93">
          <mxGeometry x="160" width="60" height="40" as="geometry" />
        </mxCell>
        <mxCell id="Lr_TVQ5S5jO8yoN1gr7h-96" value="&lt;font style=&quot;font-size: 20px;&quot;&gt;3-SIGQUIT&lt;/font&gt;" style="text;html=1;align=left;verticalAlign=middle;whiteSpace=wrap;rounded=0;" vertex="1" parent="Lr_TVQ5S5jO8yoN1gr7h-93">
          <mxGeometry x="20" y="5" width="110" height="30" as="geometry" />
        </mxCell>
        <mxCell id="Lr_TVQ5S5jO8yoN1gr7h-97" value="&lt;font style=&quot;font-size: 20px;&quot;&gt;0&lt;/font&gt;" style="text;html=1;align=left;verticalAlign=middle;whiteSpace=wrap;rounded=0;" vertex="1" parent="Lr_TVQ5S5jO8yoN1gr7h-93">
          <mxGeometry x="180" y="5" width="20" height="30" as="geometry" />
        </mxCell>
        <mxCell id="Lr_TVQ5S5jO8yoN1gr7h-98" value="" style="group" vertex="1" connectable="0" parent="Lr_TVQ5S5jO8yoN1gr7h-136">
          <mxGeometry y="120" width="220" height="40" as="geometry" />
        </mxCell>
        <mxCell id="Lr_TVQ5S5jO8yoN1gr7h-99" value="" style="rounded=0;whiteSpace=wrap;html=1;" vertex="1" parent="Lr_TVQ5S5jO8yoN1gr7h-98">
          <mxGeometry width="220" height="40" as="geometry" />
        </mxCell>
        <mxCell id="Lr_TVQ5S5jO8yoN1gr7h-100" value="" style="rounded=0;whiteSpace=wrap;html=1;" vertex="1" parent="Lr_TVQ5S5jO8yoN1gr7h-98">
          <mxGeometry x="160" width="60" height="40" as="geometry" />
        </mxCell>
        <mxCell id="Lr_TVQ5S5jO8yoN1gr7h-101" value="&lt;font style=&quot;font-size: 20px;&quot;&gt;4&lt;/font&gt;" style="text;html=1;align=left;verticalAlign=middle;whiteSpace=wrap;rounded=0;" vertex="1" parent="Lr_TVQ5S5jO8yoN1gr7h-98">
          <mxGeometry x="20" y="5" width="90" height="30" as="geometry" />
        </mxCell>
        <mxCell id="Lr_TVQ5S5jO8yoN1gr7h-102" value="&lt;font style=&quot;font-size: 20px;&quot;&gt;0&lt;/font&gt;" style="text;html=1;align=left;verticalAlign=middle;whiteSpace=wrap;rounded=0;" vertex="1" parent="Lr_TVQ5S5jO8yoN1gr7h-98">
          <mxGeometry x="180" y="5" width="20" height="30" as="geometry" />
        </mxCell>
        <mxCell id="Lr_TVQ5S5jO8yoN1gr7h-103" value="" style="group" vertex="1" connectable="0" parent="Lr_TVQ5S5jO8yoN1gr7h-136">
          <mxGeometry y="160" width="220" height="40" as="geometry" />
        </mxCell>
        <mxCell id="Lr_TVQ5S5jO8yoN1gr7h-104" value="" style="rounded=0;whiteSpace=wrap;html=1;" vertex="1" parent="Lr_TVQ5S5jO8yoN1gr7h-103">
          <mxGeometry width="220" height="40" as="geometry" />
        </mxCell>
        <mxCell id="Lr_TVQ5S5jO8yoN1gr7h-105" value="" style="rounded=0;whiteSpace=wrap;html=1;" vertex="1" parent="Lr_TVQ5S5jO8yoN1gr7h-103">
          <mxGeometry x="160" width="60" height="40" as="geometry" />
        </mxCell>
        <mxCell id="Lr_TVQ5S5jO8yoN1gr7h-106" value="&lt;font style=&quot;font-size: 20px;&quot;&gt;5&lt;/font&gt;" style="text;html=1;align=left;verticalAlign=middle;whiteSpace=wrap;rounded=0;" vertex="1" parent="Lr_TVQ5S5jO8yoN1gr7h-103">
          <mxGeometry x="20" y="5" width="90" height="30" as="geometry" />
        </mxCell>
        <mxCell id="Lr_TVQ5S5jO8yoN1gr7h-107" value="&lt;font style=&quot;font-size: 20px;&quot;&gt;0&lt;/font&gt;" style="text;html=1;align=left;verticalAlign=middle;whiteSpace=wrap;rounded=0;" vertex="1" parent="Lr_TVQ5S5jO8yoN1gr7h-103">
          <mxGeometry x="180" y="5" width="20" height="30" as="geometry" />
        </mxCell>
        <mxCell id="Lr_TVQ5S5jO8yoN1gr7h-108" value="" style="group" vertex="1" connectable="0" parent="Lr_TVQ5S5jO8yoN1gr7h-136">
          <mxGeometry y="200" width="220" height="40" as="geometry" />
        </mxCell>
        <mxCell id="Lr_TVQ5S5jO8yoN1gr7h-109" value="" style="rounded=0;whiteSpace=wrap;html=1;" vertex="1" parent="Lr_TVQ5S5jO8yoN1gr7h-108">
          <mxGeometry width="220" height="40" as="geometry" />
        </mxCell>
        <mxCell id="Lr_TVQ5S5jO8yoN1gr7h-110" value="" style="rounded=0;whiteSpace=wrap;html=1;" vertex="1" parent="Lr_TVQ5S5jO8yoN1gr7h-108">
          <mxGeometry x="160" width="60" height="40" as="geometry" />
        </mxCell>
        <mxCell id="Lr_TVQ5S5jO8yoN1gr7h-111" value="&lt;font style=&quot;font-size: 20px;&quot;&gt;6-SIGABRT&lt;/font&gt;" style="text;html=1;align=left;verticalAlign=middle;whiteSpace=wrap;rounded=0;" vertex="1" parent="Lr_TVQ5S5jO8yoN1gr7h-108">
          <mxGeometry x="20" y="5" width="110" height="30" as="geometry" />
        </mxCell>
        <mxCell id="Lr_TVQ5S5jO8yoN1gr7h-112" value="&lt;font style=&quot;font-size: 20px;&quot;&gt;0&lt;/font&gt;" style="text;html=1;align=left;verticalAlign=middle;whiteSpace=wrap;rounded=0;" vertex="1" parent="Lr_TVQ5S5jO8yoN1gr7h-108">
          <mxGeometry x="180" y="5" width="20" height="30" as="geometry" />
        </mxCell>
        <mxCell id="Lr_TVQ5S5jO8yoN1gr7h-113" value="" style="group" vertex="1" connectable="0" parent="Lr_TVQ5S5jO8yoN1gr7h-136">
          <mxGeometry y="240" width="220" height="40" as="geometry" />
        </mxCell>
        <mxCell id="Lr_TVQ5S5jO8yoN1gr7h-114" value="" style="rounded=0;whiteSpace=wrap;html=1;" vertex="1" parent="Lr_TVQ5S5jO8yoN1gr7h-113">
          <mxGeometry width="220" height="40" as="geometry" />
        </mxCell>
        <mxCell id="Lr_TVQ5S5jO8yoN1gr7h-115" value="" style="rounded=0;whiteSpace=wrap;html=1;" vertex="1" parent="Lr_TVQ5S5jO8yoN1gr7h-113">
          <mxGeometry x="160" width="60" height="40" as="geometry" />
        </mxCell>
        <mxCell id="Lr_TVQ5S5jO8yoN1gr7h-116" value="&lt;font style=&quot;font-size: 20px;&quot;&gt;7&lt;/font&gt;" style="text;html=1;align=left;verticalAlign=middle;whiteSpace=wrap;rounded=0;" vertex="1" parent="Lr_TVQ5S5jO8yoN1gr7h-113">
          <mxGeometry x="20" y="5" width="90" height="30" as="geometry" />
        </mxCell>
        <mxCell id="Lr_TVQ5S5jO8yoN1gr7h-117" value="&lt;font style=&quot;font-size: 20px;&quot;&gt;0&lt;/font&gt;" style="text;html=1;align=left;verticalAlign=middle;whiteSpace=wrap;rounded=0;" vertex="1" parent="Lr_TVQ5S5jO8yoN1gr7h-113">
          <mxGeometry x="180" y="5" width="20" height="30" as="geometry" />
        </mxCell>
        <mxCell id="Lr_TVQ5S5jO8yoN1gr7h-118" value="" style="group" vertex="1" connectable="0" parent="Lr_TVQ5S5jO8yoN1gr7h-136">
          <mxGeometry y="280" width="220" height="40" as="geometry" />
        </mxCell>
        <mxCell id="Lr_TVQ5S5jO8yoN1gr7h-119" value="" style="rounded=0;whiteSpace=wrap;html=1;" vertex="1" parent="Lr_TVQ5S5jO8yoN1gr7h-118">
          <mxGeometry width="220" height="40" as="geometry" />
        </mxCell>
        <mxCell id="Lr_TVQ5S5jO8yoN1gr7h-120" value="" style="rounded=0;whiteSpace=wrap;html=1;" vertex="1" parent="Lr_TVQ5S5jO8yoN1gr7h-118">
          <mxGeometry x="160" width="60" height="40" as="geometry" />
        </mxCell>
        <mxCell id="Lr_TVQ5S5jO8yoN1gr7h-121" value="&lt;font style=&quot;font-size: 20px;&quot;&gt;8&lt;/font&gt;" style="text;html=1;align=left;verticalAlign=middle;whiteSpace=wrap;rounded=0;" vertex="1" parent="Lr_TVQ5S5jO8yoN1gr7h-118">
          <mxGeometry x="20" y="5" width="90" height="30" as="geometry" />
        </mxCell>
        <mxCell id="Lr_TVQ5S5jO8yoN1gr7h-122" value="&lt;font style=&quot;font-size: 20px;&quot;&gt;0&lt;/font&gt;" style="text;html=1;align=left;verticalAlign=middle;whiteSpace=wrap;rounded=0;" vertex="1" parent="Lr_TVQ5S5jO8yoN1gr7h-118">
          <mxGeometry x="180" y="5" width="20" height="30" as="geometry" />
        </mxCell>
        <mxCell id="Lr_TVQ5S5jO8yoN1gr7h-123" value="" style="group" vertex="1" connectable="0" parent="Lr_TVQ5S5jO8yoN1gr7h-136">
          <mxGeometry y="460" width="220" height="40" as="geometry" />
        </mxCell>
        <mxCell id="Lr_TVQ5S5jO8yoN1gr7h-124" value="" style="rounded=0;whiteSpace=wrap;html=1;" vertex="1" parent="Lr_TVQ5S5jO8yoN1gr7h-123">
          <mxGeometry width="220" height="40" as="geometry" />
        </mxCell>
        <mxCell id="Lr_TVQ5S5jO8yoN1gr7h-125" value="" style="rounded=0;whiteSpace=wrap;html=1;" vertex="1" parent="Lr_TVQ5S5jO8yoN1gr7h-123">
          <mxGeometry x="160" width="60" height="40" as="geometry" />
        </mxCell>
        <mxCell id="Lr_TVQ5S5jO8yoN1gr7h-126" value="&lt;font style=&quot;font-size: 20px;&quot;&gt;64&lt;/font&gt;" style="text;html=1;align=left;verticalAlign=middle;whiteSpace=wrap;rounded=0;" vertex="1" parent="Lr_TVQ5S5jO8yoN1gr7h-123">
          <mxGeometry x="20" y="5" width="90" height="30" as="geometry" />
        </mxCell>
        <mxCell id="Lr_TVQ5S5jO8yoN1gr7h-127" value="&lt;font style=&quot;font-size: 20px;&quot;&gt;0&lt;/font&gt;" style="text;html=1;align=left;verticalAlign=middle;whiteSpace=wrap;rounded=0;" vertex="1" parent="Lr_TVQ5S5jO8yoN1gr7h-123">
          <mxGeometry x="180" y="5" width="20" height="30" as="geometry" />
        </mxCell>
        <mxCell id="Lr_TVQ5S5jO8yoN1gr7h-128" value="" style="group" vertex="1" connectable="0" parent="Lr_TVQ5S5jO8yoN1gr7h-136">
          <mxGeometry y="320" width="220" height="40" as="geometry" />
        </mxCell>
        <mxCell id="Lr_TVQ5S5jO8yoN1gr7h-129" value="" style="rounded=0;whiteSpace=wrap;html=1;" vertex="1" parent="Lr_TVQ5S5jO8yoN1gr7h-128">
          <mxGeometry width="220" height="40" as="geometry" />
        </mxCell>
        <mxCell id="Lr_TVQ5S5jO8yoN1gr7h-130" value="" style="rounded=0;whiteSpace=wrap;html=1;" vertex="1" parent="Lr_TVQ5S5jO8yoN1gr7h-128">
          <mxGeometry x="160" width="60" height="40" as="geometry" />
        </mxCell>
        <mxCell id="Lr_TVQ5S5jO8yoN1gr7h-131" value="&lt;font style=&quot;font-size: 20px;&quot;&gt;9-SIGKILL&lt;/font&gt;" style="text;html=1;align=left;verticalAlign=middle;whiteSpace=wrap;rounded=0;" vertex="1" parent="Lr_TVQ5S5jO8yoN1gr7h-128">
          <mxGeometry x="20" y="5" width="110" height="30" as="geometry" />
        </mxCell>
        <mxCell id="Lr_TVQ5S5jO8yoN1gr7h-132" value="&lt;font style=&quot;font-size: 20px;&quot;&gt;0&lt;/font&gt;" style="text;html=1;align=left;verticalAlign=middle;whiteSpace=wrap;rounded=0;" vertex="1" parent="Lr_TVQ5S5jO8yoN1gr7h-128">
          <mxGeometry x="180" y="5" width="20" height="30" as="geometry" />
        </mxCell>
        <mxCell id="Lr_TVQ5S5jO8yoN1gr7h-133" value="&lt;span style=&quot;font-size: 20px;&quot;&gt;...&lt;/span&gt;" style="text;html=1;align=left;verticalAlign=middle;whiteSpace=wrap;rounded=0;" vertex="1" parent="Lr_TVQ5S5jO8yoN1gr7h-136">
          <mxGeometry x="20" y="400" width="90" height="30" as="geometry" />
        </mxCell>
        <mxCell id="Lr_TVQ5S5jO8yoN1gr7h-134" value="" style="rounded=0;whiteSpace=wrap;html=1;" vertex="1" parent="Lr_TVQ5S5jO8yoN1gr7h-136">
          <mxGeometry x="160" y="360" width="60" height="100" as="geometry" />
        </mxCell>
        <mxCell id="Lr_TVQ5S5jO8yoN1gr7h-135" value="&lt;span style=&quot;font-size: 20px;&quot;&gt;...&lt;/span&gt;" style="text;html=1;align=left;verticalAlign=middle;whiteSpace=wrap;rounded=0;" vertex="1" parent="Lr_TVQ5S5jO8yoN1gr7h-136">
          <mxGeometry x="170" y="400" width="20" height="30" as="geometry" />
        </mxCell>
        <mxCell id="Lr_TVQ5S5jO8yoN1gr7h-137" value="" style="group" vertex="1" connectable="0" parent="1">
          <mxGeometry x="495" y="110" width="220" height="500" as="geometry" />
        </mxCell>
        <mxCell id="Lr_TVQ5S5jO8yoN1gr7h-12" value="" style="rounded=0;whiteSpace=wrap;html=1;" vertex="1" parent="Lr_TVQ5S5jO8yoN1gr7h-137">
          <mxGeometry width="220.00000000000003" height="500" as="geometry" />
        </mxCell>
        <mxCell id="Lr_TVQ5S5jO8yoN1gr7h-24" value="" style="group" vertex="1" connectable="0" parent="Lr_TVQ5S5jO8yoN1gr7h-137">
          <mxGeometry width="220" height="40" as="geometry" />
        </mxCell>
        <mxCell id="Lr_TVQ5S5jO8yoN1gr7h-19" value="" style="rounded=0;whiteSpace=wrap;html=1;" vertex="1" parent="Lr_TVQ5S5jO8yoN1gr7h-24">
          <mxGeometry width="220" height="40" as="geometry" />
        </mxCell>
        <mxCell id="Lr_TVQ5S5jO8yoN1gr7h-20" value="" style="rounded=0;whiteSpace=wrap;html=1;" vertex="1" parent="Lr_TVQ5S5jO8yoN1gr7h-24">
          <mxGeometry x="160" width="60" height="40" as="geometry" />
        </mxCell>
        <mxCell id="Lr_TVQ5S5jO8yoN1gr7h-21" value="&lt;font style=&quot;font-size: 20px;&quot;&gt;1&lt;/font&gt;" style="text;html=1;align=left;verticalAlign=middle;whiteSpace=wrap;rounded=0;" vertex="1" parent="Lr_TVQ5S5jO8yoN1gr7h-24">
          <mxGeometry x="20" y="5" width="90" height="30" as="geometry" />
        </mxCell>
        <mxCell id="Lr_TVQ5S5jO8yoN1gr7h-22" value="&lt;font style=&quot;font-size: 20px;&quot;&gt;0&lt;/font&gt;" style="text;html=1;align=left;verticalAlign=middle;whiteSpace=wrap;rounded=0;" vertex="1" parent="Lr_TVQ5S5jO8yoN1gr7h-24">
          <mxGeometry x="180" y="5" width="20" height="30" as="geometry" />
        </mxCell>
        <mxCell id="Lr_TVQ5S5jO8yoN1gr7h-25" value="" style="group" vertex="1" connectable="0" parent="Lr_TVQ5S5jO8yoN1gr7h-137">
          <mxGeometry y="40" width="220" height="40" as="geometry" />
        </mxCell>
        <mxCell id="Lr_TVQ5S5jO8yoN1gr7h-26" value="" style="rounded=0;whiteSpace=wrap;html=1;" vertex="1" parent="Lr_TVQ5S5jO8yoN1gr7h-25">
          <mxGeometry width="220" height="40" as="geometry" />
        </mxCell>
        <mxCell id="Lr_TVQ5S5jO8yoN1gr7h-27" value="" style="rounded=0;whiteSpace=wrap;html=1;" vertex="1" parent="Lr_TVQ5S5jO8yoN1gr7h-25">
          <mxGeometry x="160" width="60" height="40" as="geometry" />
        </mxCell>
        <mxCell id="Lr_TVQ5S5jO8yoN1gr7h-28" value="&lt;font style=&quot;font-size: 20px;&quot;&gt;2-SIGINT&lt;/font&gt;" style="text;html=1;align=left;verticalAlign=middle;whiteSpace=wrap;rounded=0;" vertex="1" parent="Lr_TVQ5S5jO8yoN1gr7h-25">
          <mxGeometry x="20" y="5" width="90" height="30" as="geometry" />
        </mxCell>
        <mxCell id="Lr_TVQ5S5jO8yoN1gr7h-29" value="&lt;font style=&quot;font-size: 20px;&quot;&gt;0&lt;/font&gt;" style="text;html=1;align=left;verticalAlign=middle;whiteSpace=wrap;rounded=0;" vertex="1" parent="Lr_TVQ5S5jO8yoN1gr7h-25">
          <mxGeometry x="180" y="5" width="20" height="30" as="geometry" />
        </mxCell>
        <mxCell id="Lr_TVQ5S5jO8yoN1gr7h-30" value="" style="group" vertex="1" connectable="0" parent="Lr_TVQ5S5jO8yoN1gr7h-137">
          <mxGeometry y="80" width="220" height="40" as="geometry" />
        </mxCell>
        <mxCell id="Lr_TVQ5S5jO8yoN1gr7h-31" value="" style="rounded=0;whiteSpace=wrap;html=1;" vertex="1" parent="Lr_TVQ5S5jO8yoN1gr7h-30">
          <mxGeometry width="220" height="40" as="geometry" />
        </mxCell>
        <mxCell id="Lr_TVQ5S5jO8yoN1gr7h-32" value="" style="rounded=0;whiteSpace=wrap;html=1;" vertex="1" parent="Lr_TVQ5S5jO8yoN1gr7h-30">
          <mxGeometry x="160" width="60" height="40" as="geometry" />
        </mxCell>
        <mxCell id="Lr_TVQ5S5jO8yoN1gr7h-33" value="&lt;font style=&quot;font-size: 20px;&quot;&gt;3-SIGQUIT&lt;/font&gt;" style="text;html=1;align=left;verticalAlign=middle;whiteSpace=wrap;rounded=0;" vertex="1" parent="Lr_TVQ5S5jO8yoN1gr7h-30">
          <mxGeometry x="20" y="5" width="110" height="30" as="geometry" />
        </mxCell>
        <mxCell id="Lr_TVQ5S5jO8yoN1gr7h-34" value="&lt;font style=&quot;font-size: 20px;&quot;&gt;0&lt;/font&gt;" style="text;html=1;align=left;verticalAlign=middle;whiteSpace=wrap;rounded=0;" vertex="1" parent="Lr_TVQ5S5jO8yoN1gr7h-30">
          <mxGeometry x="180" y="5" width="20" height="30" as="geometry" />
        </mxCell>
        <mxCell id="Lr_TVQ5S5jO8yoN1gr7h-35" value="" style="group" vertex="1" connectable="0" parent="Lr_TVQ5S5jO8yoN1gr7h-137">
          <mxGeometry y="120" width="220" height="40" as="geometry" />
        </mxCell>
        <mxCell id="Lr_TVQ5S5jO8yoN1gr7h-36" value="" style="rounded=0;whiteSpace=wrap;html=1;" vertex="1" parent="Lr_TVQ5S5jO8yoN1gr7h-35">
          <mxGeometry width="220" height="40" as="geometry" />
        </mxCell>
        <mxCell id="Lr_TVQ5S5jO8yoN1gr7h-37" value="" style="rounded=0;whiteSpace=wrap;html=1;" vertex="1" parent="Lr_TVQ5S5jO8yoN1gr7h-35">
          <mxGeometry x="160" width="60" height="40" as="geometry" />
        </mxCell>
        <mxCell id="Lr_TVQ5S5jO8yoN1gr7h-38" value="&lt;font style=&quot;font-size: 20px;&quot;&gt;4&lt;/font&gt;" style="text;html=1;align=left;verticalAlign=middle;whiteSpace=wrap;rounded=0;" vertex="1" parent="Lr_TVQ5S5jO8yoN1gr7h-35">
          <mxGeometry x="20" y="5" width="90" height="30" as="geometry" />
        </mxCell>
        <mxCell id="Lr_TVQ5S5jO8yoN1gr7h-39" value="&lt;font style=&quot;font-size: 20px;&quot;&gt;0&lt;/font&gt;" style="text;html=1;align=left;verticalAlign=middle;whiteSpace=wrap;rounded=0;" vertex="1" parent="Lr_TVQ5S5jO8yoN1gr7h-35">
          <mxGeometry x="180" y="5" width="20" height="30" as="geometry" />
        </mxCell>
        <mxCell id="Lr_TVQ5S5jO8yoN1gr7h-40" value="" style="group" vertex="1" connectable="0" parent="Lr_TVQ5S5jO8yoN1gr7h-137">
          <mxGeometry y="160" width="220" height="40" as="geometry" />
        </mxCell>
        <mxCell id="Lr_TVQ5S5jO8yoN1gr7h-41" value="" style="rounded=0;whiteSpace=wrap;html=1;" vertex="1" parent="Lr_TVQ5S5jO8yoN1gr7h-40">
          <mxGeometry width="220" height="40" as="geometry" />
        </mxCell>
        <mxCell id="Lr_TVQ5S5jO8yoN1gr7h-42" value="" style="rounded=0;whiteSpace=wrap;html=1;" vertex="1" parent="Lr_TVQ5S5jO8yoN1gr7h-40">
          <mxGeometry x="160" width="60" height="40" as="geometry" />
        </mxCell>
        <mxCell id="Lr_TVQ5S5jO8yoN1gr7h-43" value="&lt;font style=&quot;font-size: 20px;&quot;&gt;5&lt;/font&gt;" style="text;html=1;align=left;verticalAlign=middle;whiteSpace=wrap;rounded=0;" vertex="1" parent="Lr_TVQ5S5jO8yoN1gr7h-40">
          <mxGeometry x="20" y="5" width="90" height="30" as="geometry" />
        </mxCell>
        <mxCell id="Lr_TVQ5S5jO8yoN1gr7h-44" value="&lt;font style=&quot;font-size: 20px;&quot;&gt;0&lt;/font&gt;" style="text;html=1;align=left;verticalAlign=middle;whiteSpace=wrap;rounded=0;" vertex="1" parent="Lr_TVQ5S5jO8yoN1gr7h-40">
          <mxGeometry x="180" y="5" width="20" height="30" as="geometry" />
        </mxCell>
        <mxCell id="Lr_TVQ5S5jO8yoN1gr7h-53" value="" style="group" vertex="1" connectable="0" parent="Lr_TVQ5S5jO8yoN1gr7h-137">
          <mxGeometry y="200" width="220" height="40" as="geometry" />
        </mxCell>
        <mxCell id="Lr_TVQ5S5jO8yoN1gr7h-54" value="" style="rounded=0;whiteSpace=wrap;html=1;" vertex="1" parent="Lr_TVQ5S5jO8yoN1gr7h-53">
          <mxGeometry width="220" height="40" as="geometry" />
        </mxCell>
        <mxCell id="Lr_TVQ5S5jO8yoN1gr7h-55" value="" style="rounded=0;whiteSpace=wrap;html=1;" vertex="1" parent="Lr_TVQ5S5jO8yoN1gr7h-53">
          <mxGeometry x="160" width="60" height="40" as="geometry" />
        </mxCell>
        <mxCell id="Lr_TVQ5S5jO8yoN1gr7h-56" value="&lt;font style=&quot;font-size: 20px;&quot;&gt;6-SIGABRT&lt;/font&gt;" style="text;html=1;align=left;verticalAlign=middle;whiteSpace=wrap;rounded=0;" vertex="1" parent="Lr_TVQ5S5jO8yoN1gr7h-53">
          <mxGeometry x="20" y="5" width="110" height="30" as="geometry" />
        </mxCell>
        <mxCell id="Lr_TVQ5S5jO8yoN1gr7h-57" value="&lt;font style=&quot;font-size: 20px;&quot;&gt;0&lt;/font&gt;" style="text;html=1;align=left;verticalAlign=middle;whiteSpace=wrap;rounded=0;" vertex="1" parent="Lr_TVQ5S5jO8yoN1gr7h-53">
          <mxGeometry x="180" y="5" width="20" height="30" as="geometry" />
        </mxCell>
        <mxCell id="Lr_TVQ5S5jO8yoN1gr7h-58" value="" style="group" vertex="1" connectable="0" parent="Lr_TVQ5S5jO8yoN1gr7h-137">
          <mxGeometry y="240" width="220" height="40" as="geometry" />
        </mxCell>
        <mxCell id="Lr_TVQ5S5jO8yoN1gr7h-59" value="" style="rounded=0;whiteSpace=wrap;html=1;" vertex="1" parent="Lr_TVQ5S5jO8yoN1gr7h-58">
          <mxGeometry width="220" height="40" as="geometry" />
        </mxCell>
        <mxCell id="Lr_TVQ5S5jO8yoN1gr7h-60" value="" style="rounded=0;whiteSpace=wrap;html=1;" vertex="1" parent="Lr_TVQ5S5jO8yoN1gr7h-58">
          <mxGeometry x="160" width="60" height="40" as="geometry" />
        </mxCell>
        <mxCell id="Lr_TVQ5S5jO8yoN1gr7h-61" value="&lt;font style=&quot;font-size: 20px;&quot;&gt;7&lt;/font&gt;" style="text;html=1;align=left;verticalAlign=middle;whiteSpace=wrap;rounded=0;" vertex="1" parent="Lr_TVQ5S5jO8yoN1gr7h-58">
          <mxGeometry x="20" y="5" width="90" height="30" as="geometry" />
        </mxCell>
        <mxCell id="Lr_TVQ5S5jO8yoN1gr7h-62" value="&lt;font style=&quot;font-size: 20px;&quot;&gt;0&lt;/font&gt;" style="text;html=1;align=left;verticalAlign=middle;whiteSpace=wrap;rounded=0;" vertex="1" parent="Lr_TVQ5S5jO8yoN1gr7h-58">
          <mxGeometry x="180" y="5" width="20" height="30" as="geometry" />
        </mxCell>
        <mxCell id="Lr_TVQ5S5jO8yoN1gr7h-63" value="" style="group" vertex="1" connectable="0" parent="Lr_TVQ5S5jO8yoN1gr7h-137">
          <mxGeometry y="280" width="220" height="40" as="geometry" />
        </mxCell>
        <mxCell id="Lr_TVQ5S5jO8yoN1gr7h-64" value="" style="rounded=0;whiteSpace=wrap;html=1;" vertex="1" parent="Lr_TVQ5S5jO8yoN1gr7h-63">
          <mxGeometry width="220" height="40" as="geometry" />
        </mxCell>
        <mxCell id="Lr_TVQ5S5jO8yoN1gr7h-65" value="" style="rounded=0;whiteSpace=wrap;html=1;" vertex="1" parent="Lr_TVQ5S5jO8yoN1gr7h-63">
          <mxGeometry x="160" width="60" height="40" as="geometry" />
        </mxCell>
        <mxCell id="Lr_TVQ5S5jO8yoN1gr7h-66" value="&lt;font style=&quot;font-size: 20px;&quot;&gt;8&lt;/font&gt;" style="text;html=1;align=left;verticalAlign=middle;whiteSpace=wrap;rounded=0;" vertex="1" parent="Lr_TVQ5S5jO8yoN1gr7h-63">
          <mxGeometry x="20" y="5" width="90" height="30" as="geometry" />
        </mxCell>
        <mxCell id="Lr_TVQ5S5jO8yoN1gr7h-67" value="&lt;font style=&quot;font-size: 20px;&quot;&gt;0&lt;/font&gt;" style="text;html=1;align=left;verticalAlign=middle;whiteSpace=wrap;rounded=0;" vertex="1" parent="Lr_TVQ5S5jO8yoN1gr7h-63">
          <mxGeometry x="180" y="5" width="20" height="30" as="geometry" />
        </mxCell>
        <mxCell id="Lr_TVQ5S5jO8yoN1gr7h-68" value="" style="group" vertex="1" connectable="0" parent="Lr_TVQ5S5jO8yoN1gr7h-137">
          <mxGeometry y="460" width="220" height="40" as="geometry" />
        </mxCell>
        <mxCell id="Lr_TVQ5S5jO8yoN1gr7h-69" value="" style="rounded=0;whiteSpace=wrap;html=1;" vertex="1" parent="Lr_TVQ5S5jO8yoN1gr7h-68">
          <mxGeometry width="220" height="40" as="geometry" />
        </mxCell>
        <mxCell id="Lr_TVQ5S5jO8yoN1gr7h-70" value="" style="rounded=0;whiteSpace=wrap;html=1;" vertex="1" parent="Lr_TVQ5S5jO8yoN1gr7h-68">
          <mxGeometry x="160" width="60" height="40" as="geometry" />
        </mxCell>
        <mxCell id="Lr_TVQ5S5jO8yoN1gr7h-71" value="&lt;font style=&quot;font-size: 20px;&quot;&gt;64&lt;/font&gt;" style="text;html=1;align=left;verticalAlign=middle;whiteSpace=wrap;rounded=0;" vertex="1" parent="Lr_TVQ5S5jO8yoN1gr7h-68">
          <mxGeometry x="20" y="5" width="90" height="30" as="geometry" />
        </mxCell>
        <mxCell id="Lr_TVQ5S5jO8yoN1gr7h-72" value="&lt;font style=&quot;font-size: 20px;&quot;&gt;0&lt;/font&gt;" style="text;html=1;align=left;verticalAlign=middle;whiteSpace=wrap;rounded=0;" vertex="1" parent="Lr_TVQ5S5jO8yoN1gr7h-68">
          <mxGeometry x="180" y="5" width="20" height="30" as="geometry" />
        </mxCell>
        <mxCell id="Lr_TVQ5S5jO8yoN1gr7h-73" value="" style="group" vertex="1" connectable="0" parent="Lr_TVQ5S5jO8yoN1gr7h-137">
          <mxGeometry y="320" width="220" height="40" as="geometry" />
        </mxCell>
        <mxCell id="Lr_TVQ5S5jO8yoN1gr7h-74" value="" style="rounded=0;whiteSpace=wrap;html=1;" vertex="1" parent="Lr_TVQ5S5jO8yoN1gr7h-73">
          <mxGeometry width="220" height="40" as="geometry" />
        </mxCell>
        <mxCell id="Lr_TVQ5S5jO8yoN1gr7h-75" value="" style="rounded=0;whiteSpace=wrap;html=1;" vertex="1" parent="Lr_TVQ5S5jO8yoN1gr7h-73">
          <mxGeometry x="160" width="60" height="40" as="geometry" />
        </mxCell>
        <mxCell id="Lr_TVQ5S5jO8yoN1gr7h-76" value="&lt;font style=&quot;font-size: 20px;&quot;&gt;9-SIGKILL&lt;/font&gt;" style="text;html=1;align=left;verticalAlign=middle;whiteSpace=wrap;rounded=0;" vertex="1" parent="Lr_TVQ5S5jO8yoN1gr7h-73">
          <mxGeometry x="20" y="5" width="110" height="30" as="geometry" />
        </mxCell>
        <mxCell id="Lr_TVQ5S5jO8yoN1gr7h-77" value="&lt;font style=&quot;font-size: 20px;&quot;&gt;0&lt;/font&gt;" style="text;html=1;align=left;verticalAlign=middle;whiteSpace=wrap;rounded=0;" vertex="1" parent="Lr_TVQ5S5jO8yoN1gr7h-73">
          <mxGeometry x="180" y="5" width="20" height="30" as="geometry" />
        </mxCell>
        <mxCell id="Lr_TVQ5S5jO8yoN1gr7h-78" value="&lt;span style=&quot;font-size: 20px;&quot;&gt;...&lt;/span&gt;" style="text;html=1;align=left;verticalAlign=middle;whiteSpace=wrap;rounded=0;" vertex="1" parent="Lr_TVQ5S5jO8yoN1gr7h-137">
          <mxGeometry x="20" y="400" width="90" height="30" as="geometry" />
        </mxCell>
        <mxCell id="Lr_TVQ5S5jO8yoN1gr7h-79" value="" style="rounded=0;whiteSpace=wrap;html=1;" vertex="1" parent="Lr_TVQ5S5jO8yoN1gr7h-137">
          <mxGeometry x="160" y="360" width="60" height="100" as="geometry" />
        </mxCell>
        <mxCell id="Lr_TVQ5S5jO8yoN1gr7h-80" value="&lt;span style=&quot;font-size: 20px;&quot;&gt;...&lt;/span&gt;" style="text;html=1;align=left;verticalAlign=middle;whiteSpace=wrap;rounded=0;" vertex="1" parent="Lr_TVQ5S5jO8yoN1gr7h-137">
          <mxGeometry x="170" y="400" width="20" height="30" as="geometry" />
        </mxCell>
      </root>
    </mxGraphModel>
  </diagram>
</mxfile>
